<?xml version="1.0" standalone="no"?>
<!DOCTYPE svg PUBLIC "-//W3C//DTD SVG 20010904//EN"
 "http://www.w3.org/TR/2001/REC-SVG-20010904/DTD/svg10.dtd">
<svg version="1.0" xmlns="http://www.w3.org/2000/svg"
 width="512.000000pt" height="512.000000pt" viewBox="0 0 512.000000 512.000000"
 preserveAspectRatio="xMidYMid meet">

<g transform="translate(0.000000,512.000000) scale(0.100000,-0.100000)"
fill="#FFFFFF" stroke="none">
<path d="M1842 5105 c-29 -8 -67 -22 -85 -31 -17 -9 -367 -219 -776 -468 -580
-351 -756 -463 -800 -506 -62 -61 -112 -153 -130 -238 -8 -36 -11 -348 -11
-995 0 -1036 -2 -999 61 -1117 33 -63 92 -127 154 -170 89 -60 1472 -894 1524
-919 51 -24 67 -26 176 -26 107 0 127 3 183 26 l62 27 0 -137 c0 -75 5 -167
10 -206 20 -138 101 -248 228 -308 l67 -32 1135 0 1135 0 57 23 c67 27 143 93
187 160 64 100 62 55 59 1278 l-3 1109 -32 67 c-60 127 -170 208 -308 228 -43
6 -477 10 -1125 10 -1159 0 -1124 2 -1220 -60 -53 -34 -108 -90 -138 -141 -52
-86 -52 -90 -52 -980 l0 -828 -52 -30 c-29 -16 -65 -34 -80 -40 l-28 -11 0
1019 0 1018 833 505 c457 278 835 504 840 501 4 -2 7 -166 7 -363 0 -242 4
-367 11 -383 23 -51 93 -55 129 -9 19 24 20 41 20 371 0 385 -6 439 -61 542
-60 113 -100 140 -895 624 -406 247 -766 460 -799 474 -76 30 -205 38 -283 16z
m218 -157 c37 -11 1501 -896 1552 -938 l30 -25 -832 -505 c-458 -278 -838
-506 -846 -508 -7 -2 -282 160 -610 359 -328 199 -610 367 -625 373 -24 8 -36
7 -63 -8 l-34 -18 -61 37 c-55 34 -61 41 -61 71 0 18 -3 39 -6 48 -3 9 -56 46
-116 82 l-110 67 23 22 c21 20 1443 891 1521 931 64 33 154 38 238 12z m2725
-2247 c48 -22 97 -70 122 -120 17 -34 18 -98 18 -1146 l0 -1110 -28 -48 c-32
-54 -92 -102 -148 -117 -24 -7 -413 -9 -1126 -8 -1024 3 -1090 4 -1124 21 -50
25 -98 74 -120 122 -18 38 -19 96 -19 1143 0 913 2 1108 14 1136 20 48 71 101
119 125 42 21 45 21 1147 21 1049 0 1107 -1 1145 -19z m-3795 -247 c68 -62
116 -199 96 -278 -20 -79 -137 34 -172 166 -16 63 -17 88 -4 122 13 35 33 33
80 -10z"/>
<path d="M1020 4235 c-254 -71 -298 -319 -77 -428 230 -112 537 1 537 198 0
89 -69 174 -176 215 -76 30 -207 36 -284 15z m248 -166 c24 -12 48 -32 54 -45
10 -21 7 -28 -16 -53 -71 -74 -271 -70 -339 7 -25 27 -15 55 27 81 72 45 192
49 274 10z"/>
<path d="M1840 4235 c-254 -71 -298 -319 -77 -428 230 -112 537 1 537 198 0
89 -69 174 -176 215 -76 30 -207 36 -284 15z m248 -166 c24 -12 48 -32 54 -45
10 -21 7 -28 -16 -53 -71 -74 -271 -70 -339 7 -25 27 -15 55 27 81 72 45 192
49 274 10z"/>
<path d="M2660 4235 c-254 -71 -298 -319 -77 -428 150 -73 350 -54 461 43 133
118 84 299 -100 370 -76 30 -207 36 -284 15z m248 -166 c24 -12 48 -32 54 -45
10 -21 7 -28 -16 -53 -71 -74 -271 -70 -339 7 -25 27 -15 55 27 81 72 45 192
49 274 10z"/>
<path d="M2782 2440 c-112 -57 -172 -153 -172 -280 0 -62 5 -86 28 -135 62
-131 202 -203 339 -175 299 61 352 462 78 591 -50 24 -73 29 -136 29 -64 0
-85 -5 -137 -30z m208 -140 c59 -30 85 -74 85 -142 0 -86 -53 -146 -137 -155
-173 -20 -243 216 -88 295 55 27 89 28 140 2z"/>
<path d="M3538 1735 c-139 -53 -215 -172 -206 -318 5 -81 29 -136 84 -197 114
-126 327 -127 449 -4 92 94 118 242 62 356 -31 62 -84 116 -149 149 -54 28
-184 36 -240 14z m172 -157 c59 -31 82 -66 88 -130 4 -62 -19 -106 -78 -146
-29 -20 -44 -23 -88 -20 -31 3 -64 13 -80 24 -32 24 -72 98 -72 135 0 47 42
111 90 136 54 29 84 29 140 1z"/>
<path d="M4280 1021 c-86 -28 -159 -90 -201 -171 -34 -65 -34 -205 -1 -268 35
-66 88 -119 150 -149 78 -39 193 -40 267 -4 63 32 124 93 155 156 37 75 35
189 -3 267 -31 62 -84 116 -149 149 -46 24 -171 36 -218 20z m165 -170 c16 -9
40 -33 53 -52 31 -44 28 -129 -6 -176 -45 -63 -149 -83 -213 -40 -46 30 -83
106 -75 151 10 51 46 98 96 124 50 25 93 23 145 -7z"/>
</g>
</svg>
